HIERARCHY
ROOT mixamorig:Hips
{
	OFFSET -0.000008 104.274872 1.554316
	CHANNELS 6 Xposition Yposition Zposition Xrotation Yrotation Zrotation
	JOINT mixamorig:Spine
	{
		OFFSET -0.000005 10.181587 0.131521
		CHANNELS 6 Xposition Yposition Zposition Xrotation Yrotation Zrotation
		JOINT mixamorig:Spine1
		{
			OFFSET -0.000000 9.893967 -1.470711
			CHANNELS 3 Xrotation Yrotation Zrotation
			JOINT mixamorig:Spine2
			{
				OFFSET -0.000000 9.220772 -1.370643
				CHANNELS 3 Xrotation Yrotation Zrotation
				JOINT mixamorig:Neck
				{
					OFFSET 0.000001 16.740387 -2.049035
					CHANNELS 6 Xposition Yposition Zposition Xrotation Yrotation Zrotation
					JOINT mixamorig:Head
					{
						OFFSET 0.000000 9.617889 1.685008
						CHANNELS 6 Xposition Yposition Zposition Xrotation Yrotation Zrotation
						JOINT mixamorig:HeadTop_End
						{
							OFFSET 0.000002 22.037369 7.501095
							CHANNELS 6 Xposition Yposition Zposition Xrotation Yrotation Zrotation
							End Site
							{
								OFFSET 0.000002 23.106552 -2.828258
							}
						}
					}
				}
				JOINT mixamorig:RightShoulder
				{
					OFFSET -4.569969 11.014908 -2.160884
					CHANNELS 6 Xposition Yposition Zposition Xrotation Yrotation Zrotation
					JOINT mixamorig:RightArm
					{
						OFFSET -10.592846 -0.524811 -2.232097
						CHANNELS 3 Xrotation Yrotation Zrotation
						JOINT mixamorig:RightForeArm
						{
							OFFSET -27.841518 0.000000 -0.000004
							CHANNELS 3 Xrotation Yrotation Zrotation
							JOINT mixamorig:RightHand
							{
								OFFSET -28.328838 0.000000 0.000019
								CHANNELS 3 Xrotation Yrotation Zrotation
								JOINT mixamorig:RightHandThumb1
								{
									OFFSET -2.464806 -1.573990 2.681852
									CHANNELS 6 Xposition Yposition Zposition Xrotation Yrotation Zrotation
									JOINT mixamorig:RightHandThumb2
									{
										OFFSET -3.215187 -1.872772 1.924281
										CHANNELS 3 Xrotation Yrotation Zrotation
										JOINT mixamorig:RightHandThumb3
										{
											OFFSET -2.654839 -1.527985 1.512611
											CHANNELS 3 Xrotation Yrotation Zrotation
											JOINT mixamorig:RightHandThumb4
											{
												OFFSET -2.018822 -1.152008 1.108052
												CHANNELS 3 Xrotation Yrotation Zrotation
												End Site
												{
													OFFSET -1.888100 -1.145340 1.324313
												}
											}
										}
									}
								}
								JOINT mixamorig:RightHandIndex1
								{
									OFFSET -9.108284 -0.517868 2.259834
									CHANNELS 6 Xposition Yposition Zposition Xrotation Yrotation Zrotation
									JOINT mixamorig:RightHandIndex2
									{
										OFFSET -3.699997 0.000015 0.001215
										CHANNELS 3 Xrotation Yrotation Zrotation
										JOINT mixamorig:RightHandIndex3
										{
											OFFSET -2.850006 0.000000 -0.000521
											CHANNELS 3 Xrotation Yrotation Zrotation
											JOINT mixamorig:RightHandIndex4
											{
												OFFSET -2.772186 0.000000 -0.000020
												CHANNELS 3 Xrotation Yrotation Zrotation
												End Site
												{
													OFFSET -2.772186 0.000000 -0.000502
												}
											}
										}
									}
								}
								JOINT mixamorig:RightHandMiddle1
								{
									OFFSET -9.532501 -0.000046 -0.000025
									CHANNELS 6 Xposition Yposition Zposition Xrotation Yrotation Zrotation
									JOINT mixamorig:RightHandMiddle2
									{
										OFFSET -3.699997 0.000015 0.003713
										CHANNELS 3 Xrotation Yrotation Zrotation
										JOINT mixamorig:RightHandMiddle3
										{
											OFFSET -2.949997 0.000000 -0.002054
											CHANNELS 3 Xrotation Yrotation Zrotation
											JOINT mixamorig:RightHandMiddle4
											{
												OFFSET -2.946632 0.000015 -0.000155
												CHANNELS 3 Xrotation Yrotation Zrotation
												End Site
												{
													OFFSET -2.946625 0.000000 -0.001135
												}
											}
										}
									}
								}
								JOINT mixamorig:RightHandRing1
								{
									OFFSET -9.103592 -0.043076 -1.865134
									CHANNELS 6 Xposition Yposition Zposition Xrotation Yrotation Zrotation
									JOINT mixamorig:RightHandRing2
									{
										OFFSET -3.379272 0.000000 -0.001054
										CHANNELS 3 Xrotation Yrotation Zrotation
										JOINT mixamorig:RightHandRing3
										{
											OFFSET -2.889687 0.000000 0.000379
											CHANNELS 3 Xrotation Yrotation Zrotation
											JOINT mixamorig:RightHandRing4
											{
												OFFSET -2.638817 0.000000 0.000942
												CHANNELS 3 Xrotation Yrotation Zrotation
												End Site
												{
													OFFSET -2.638802 0.000000 0.005160
												}
											}
										}
									}
								}
								JOINT mixamorig:RightHandPinky1
								{
									OFFSET -8.076675 -0.486710 -3.806279
									CHANNELS 6 Xposition Yposition Zposition Xrotation Yrotation Zrotation
									JOINT mixamorig:RightHandPinky2
									{
										OFFSET -3.599998 -0.000031 -0.003747
										CHANNELS 3 Xrotation Yrotation Zrotation
										JOINT mixamorig:RightHandPinky3
										{
											OFFSET -2.099991 -0.000015 -0.005740
											CHANNELS 3 Xrotation Yrotation Zrotation
											JOINT mixamorig:RightHandPinky4
											{
												OFFSET -2.115776 -0.000015 -0.003680
												CHANNELS 3 Xrotation Yrotation Zrotation
												End Site
												{
													OFFSET -2.115784 -0.000015 -0.003507
												}
											}
										}
									}
								}
							}
						}
					}
				}
				JOINT mixamorig:LeftShoulder
				{
					OFFSET 4.570447 11.014709 -2.160855
					CHANNELS 6 Xposition Yposition Zposition Xrotation Yrotation Zrotation
					JOINT mixamorig:LeftArm
					{
						OFFSET 10.592369 -0.524597 -2.232120
						CHANNELS 3 Xrotation Yrotation Zrotation
						JOINT mixamorig:LeftForeArm
						{
							OFFSET 27.841522 -0.000031 0.000023
							CHANNELS 3 Xrotation Yrotation Zrotation
							JOINT mixamorig:LeftHand
							{
								OFFSET 28.328835 -0.000031 0.000018
								CHANNELS 3 Xrotation Yrotation Zrotation
								JOINT mixamorig:LeftHandThumb1
								{
									OFFSET 2.466141 -1.576187 2.681734
									CHANNELS 6 Xposition Yposition Zposition Xrotation Yrotation Zrotation
									JOINT mixamorig:LeftHandThumb2
									{
										OFFSET 3.217804 -1.872055 1.916487
										CHANNELS 3 Xrotation Yrotation Zrotation
										JOINT mixamorig:LeftHandThumb3
										{
											OFFSET 2.656013 -1.528809 1.514505
											CHANNELS 3 Xrotation Yrotation Zrotation
											JOINT mixamorig:LeftHandThumb4
											{
												OFFSET 2.020889 -1.154068 1.115134
												CHANNELS 3 Xrotation Yrotation Zrotation
												End Site
												{
													OFFSET 1.908852 -1.150833 1.300489
												}
											}
										}
									}
								}
								JOINT mixamorig:LeftHandIndex1
								{
									OFFSET 9.109306 -0.518036 2.259871
									CHANNELS 6 Xposition Yposition Zposition Xrotation Yrotation Zrotation
									JOINT mixamorig:LeftHandIndex2
									{
										OFFSET 3.699997 -0.000015 -0.000323
										CHANNELS 3 Xrotation Yrotation Zrotation
										JOINT mixamorig:LeftHandIndex3
										{
											OFFSET 2.850006 -0.000015 0.000350
											CHANNELS 3 Xrotation Yrotation Zrotation
											JOINT mixamorig:LeftHandIndex4
											{
												OFFSET 2.774864 0.000000 -0.000027
												CHANNELS 3 Xrotation Yrotation Zrotation
												End Site
												{
													OFFSET 2.774872 -0.000015 -0.000099
												}
											}
										}
									}
								}
								JOINT mixamorig:LeftHandMiddle1
								{
									OFFSET 9.533401 0.000031 0.000044
									CHANNELS 6 Xposition Yposition Zposition Xrotation Yrotation Zrotation
									JOINT mixamorig:LeftHandMiddle2
									{
										OFFSET 3.699997 -0.000015 -0.000231
										CHANNELS 3 Xrotation Yrotation Zrotation
										JOINT mixamorig:LeftHandMiddle3
										{
											OFFSET 2.950005 0.000000 -0.000060
											CHANNELS 3 Xrotation Yrotation Zrotation
											JOINT mixamorig:LeftHandMiddle4
											{
												OFFSET 2.952858 0.000000 0.000063
												CHANNELS 3 Xrotation Yrotation Zrotation
												End Site
												{
													OFFSET 2.952866 0.000000 0.000228
												}
											}
										}
									}
								}
								JOINT mixamorig:LeftHandRing1
								{
									OFFSET 9.104530 -0.043030 -1.865074
									CHANNELS 6 Xposition Yposition Zposition Xrotation Yrotation Zrotation
									JOINT mixamorig:LeftHandRing2
									{
										OFFSET 3.150002 -0.000015 0.000042
										CHANNELS 3 Xrotation Yrotation Zrotation
										JOINT mixamorig:LeftHandRing3
										{
											OFFSET 2.949997 0.000000 0.000037
											CHANNELS 3 Xrotation Yrotation Zrotation
											JOINT mixamorig:LeftHandRing4
											{
												OFFSET 2.644318 -0.000015 0.000059
												CHANNELS 3 Xrotation Yrotation Zrotation
												End Site
												{
													OFFSET 2.644318 0.000000 0.000121
												}
											}
										}
									}
								}
								JOINT mixamorig:LeftHandPinky1
								{
									OFFSET 8.077782 -0.486877 -3.806256
									CHANNELS 6 Xposition Yposition Zposition Xrotation Yrotation Zrotation
									JOINT mixamorig:LeftHandPinky2
									{
										OFFSET 3.599968 0.000031 0.014726
										CHANNELS 3 Xrotation Yrotation Zrotation
										JOINT mixamorig:LeftHandPinky3
										{
											OFFSET 2.099991 0.000015 0.007705
											CHANNELS 3 Xrotation Yrotation Zrotation
											JOINT mixamorig:LeftHandPinky4
											{
												OFFSET 2.125511 0.000015 0.007514
												CHANNELS 3 Xrotation Yrotation Zrotation
												End Site
												{
													OFFSET 2.125526 0.000015 0.006258
												}
											}
										}
									}
								}
							}
						}
					}
				}
			}
		}
	}
	JOINT mixamorig:RightUpLeg
	{
		OFFSET -8.207787 -6.751671 -1.599560
		CHANNELS 6 Xposition Yposition Zposition Xrotation Yrotation Zrotation
		JOINT mixamorig:RightLeg
		{
			OFFSET -0.000001 -44.370113 0.345939
			CHANNELS 3 Xrotation Yrotation Zrotation
			JOINT mixamorig:RightFoot
			{
				OFFSET 0.000001 -44.423676 -3.043536
				CHANNELS 3 Xrotation Yrotation Zrotation
				JOINT mixamorig:RightToeBase
				{
					OFFSET -0.000003 -8.728670 10.710561
					CHANNELS 3 Xrotation Yrotation Zrotation
					JOINT mixamorig:RightToe_End
					{
						OFFSET -0.000003 -0.000677 9.278120
						CHANNELS 3 Xrotation Yrotation Zrotation
						End Site
						{
							OFFSET -0.000003 -0.000677 9.278120
						}
					}
				}
			}
		}
	}
	JOINT mixamorig:LeftUpLeg
	{
		OFFSET 8.207791 -6.751701 -1.599555
		CHANNELS 6 Xposition Yposition Zposition Xrotation Yrotation Zrotation
		JOINT mixamorig:LeftLeg
		{
			OFFSET -0.000002 -44.370033 0.346958
			CHANNELS 3 Xrotation Yrotation Zrotation
			JOINT mixamorig:LeftFoot
			{
				OFFSET 0.000000 -44.423653 -3.044392
				CHANNELS 3 Xrotation Yrotation Zrotation
				JOINT mixamorig:LeftToeBase
				{
					OFFSET -0.000003 -8.728668 10.710560
					CHANNELS 3 Xrotation Yrotation Zrotation
					JOINT mixamorig:LeftToe_End
					{
						OFFSET -0.000003 -0.000677 9.278137
						CHANNELS 3 Xrotation Yrotation Zrotation
						End Site
						{
							OFFSET -0.000003 -0.000677 9.278137
						}
					}
				}
			}
		}
	}
}
MOTION
Frames: 4
Frame Time: 0.033333
-14.372488 97.925659 -1.384067 -1.065973 2.367844 -9.183793 -0.000004 10.181592 0.131520 7.244654 0.088195 4.340105 0.904448 0.000740 0.637544 0.904922 0.003891 0.638046 0.000001 16.740379 -2.049035 4.612820 0.226688 0.736618 0.000000 9.617901 1.685013 -7.906999 1.863148 3.734535 0.000003 22.037338 7.501095 0.000000 0.000001 -0.000000 -4.569971 11.014894 -2.160884 0.652596 13.292636 8.561255 -45.763036 16.325795 36.267522 0.000110 88.449925 -0.000437 -24.628284 10.095266 -51.364395 -2.464828 -1.573972 2.681840 -16.796069 32.916837 2.179681 -7.666197 -56.319534 -30.833755 -10.013774 -4.096463 -16.474927 0.000007 -0.000011 0.000001 -9.108294 -0.517864 2.259834 0.338462 3.006087 -3.015274 0.462436 -2.006327 25.852220 0.137237 1.112991 -13.924154 -0.000001 -0.000001 -0.000001 -9.532519 -0.000039 -0.000022 0.048492 -2.687351 0.052817 0.357822 -1.734893 23.077447 0.158808 1.167207 -14.952587 0.000000 0.000001 -0.000007 -9.103602 -0.043077 -1.865130 0.377940 -6.615186 4.383078 0.502440 -2.123975 26.741239 0.149997 1.181410 -14.818025 -0.000000 0.000009 0.000001 -8.076681 -0.486706 -3.806286 0.318486 -9.174203 2.009924 0.310067 -1.739461 23.008614 0.157730 1.050673 -13.764013 -0.000000 0.000005 0.000007 4.570446 11.014698 -2.160856 -0.937373 -12.679234 0.855334 -26.542130 -19.888119 -50.950640 21.245309 -108.703997 25.108810 4.566060 -9.349933 56.726978 2.466131 -1.576183 2.681731 -18.283824 -17.714541 -25.253463 -3.954119 34.953012 21.420477 -11.694490 -29.480292 7.091493 0.000003 0.000005 -0.000003 9.109298 -0.518039 2.259864 -1.223780 -7.613607 -7.684354 0.933675 3.179739 -32.701146 0.053679 -0.799105 7.747962 -0.000000 0.000002 -0.000000 9.533412 0.000043 0.000046 -0.234822 0.508363 -7.721300 1.033487 3.328060 -34.541838 0.135705 -1.253640 12.354129 -0.000000 0.000001 0.000002 9.104537 -0.043021 -1.865073 1.002573 8.109105 -9.926008 1.075116 3.383377 -35.234842 0.077644 -0.952356 9.335217 -0.000001 0.000004 -0.000002 8.077787 -0.486860 -3.806262 1.971925 15.437882 -8.029377 0.893748 2.885168 -30.050459 0.144210 -1.518969 14.849808 0.000000 -0.000002 -0.000000 -8.207788 -6.751661 -1.599562 -13.893674 -27.238366 -2.136970 34.404520 9.915473 -2.099184 -18.134625 14.909637 1.504166 -3.747438 0.000002 -0.000002 -0.000000 -0.000000 -0.000000 8.207791 -6.751698 -1.599558 -31.012539 24.874582 24.591413 43.472641 -10.098086 9.689525 -21.567108 -18.539208 -5.523921 0.897547 0.009319 -0.961551 0.000000 -0.000000 -0.000000 
-13.655504 97.638359 -1.520982 -0.217261 2.068191 -9.244822 -0.000007 10.181587 0.131521 6.601494 -0.146756 4.244739 0.919827 -0.061749 0.572626 0.920853 -0.056206 0.573581 -0.000001 16.740385 -2.049032 4.536275 0.248746 0.786861 0.000002 9.617873 1.685007 -8.004598 1.997689 4.138451 0.000002 22.037369 7.501096 -0.000001 0.000000 -0.000000 -4.569970 11.014922 -2.160882 -0.017142 16.871734 5.444664 -41.474001 29.811952 37.532105 0.000026 82.676947 -0.000007 -12.379237 17.546206 -63.067897 -2.464826 -1.573961 2.681842 -11.433092 34.642497 -4.369445 -7.487807 -56.212375 -30.637022 -10.031040 -4.215330 -16.573524 -0.000003 -0.000002 0.000002 -9.108295 -0.517874 2.259831 -0.025367 2.367097 4.066564 0.574719 -2.224402 28.867231 0.004313 0.190428 -2.462043 -0.000001 -0.000003 0.000003 -9.532508 -0.000045 -0.000031 0.081875 -2.959712 3.646848 0.507643 -2.059239 27.468407 0.099318 0.917813 -11.803907 -0.000000 0.000002 -0.000007 -9.103594 -0.043091 -1.865140 0.364205 -6.532269 4.282283 0.650629 -2.394125 30.529269 0.126104 1.085317 -13.602175 -0.000001 -0.000001 -0.000001 -8.076689 -0.486701 -3.806282 0.361642 -10.031022 2.124153 0.359328 -1.861919 24.629314 0.126088 0.925605 -12.180176 0.000001 -0.000007 0.000003 4.570446 11.014719 -2.160856 -3.794133 -17.580448 7.753627 -27.265465 -24.696357 -61.510819 23.874382 -102.573732 35.419742 5.383031 -9.299611 57.103902 2.466145 -1.576221 2.681741 -30.708008 -15.148398 -33.993732 -3.865286 35.037457 21.368792 -11.628828 -29.095561 7.267232 0.000001 0.000004 0.000001 9.109317 -0.518059 2.259880 -0.914638 -7.602225 -6.020759 0.973664 3.240933 -33.416441 0.018547 -0.473300 4.549309 -0.000000 -0.000003 0.000003 9.533437 0.000023 0.000049 -0.207436 0.570819 -7.292683 0.995357 3.272036 -33.878732 0.100468 -1.080236 10.626617 0.000001 -0.000003 0.000004 9.104541 -0.043035 -1.865075 1.587962 9.391866 -13.209011 1.289414 3.667381 -38.718129 0.030793 -0.601078 5.875962 0.000000 0.000007 -0.000001 8.077794 -0.486870 -3.806255 2.754747 16.576113 -10.574475 1.101912 3.194233 -33.694385 0.126980 -1.441273 14.073164 0.000000 0.000003 -0.000002 -8.207787 -6.751670 -1.599562 -15.614147 -27.014344 -2.740833 35.265875 9.902428 -2.279741 -18.400881 14.912955 1.969561 -3.745658 -0.000005 -0.000002 0.000001 -0.000000 -0.000000 8.207789 -6.751708 -1.599558 -32.039307 24.420312 23.978634 44.594800 -10.092012 9.716131 -21.988215 -17.736336 -4.847096 0.920935 0.008955 -0.943075 0.000000 -0.000000 0.000000 
-12.878701 96.822540 -1.887688 -0.835889 1.815518 -9.583518 -0.000007 10.181594 0.131521 7.636432 -0.326111 4.732673 1.068698 -0.138812 0.621795 1.070009 -0.131634 0.624340 0.000000 16.740406 -2.049033 4.655456 0.277989 0.763148 -0.000001 9.617878 1.685010 -8.650467 2.337213 4.303750 0.000002 22.037338 7.501097 0.000000 0.000000 0.000000 -4.569968 11.014894 -2.160881 -0.186232 19.113145 2.390275 -34.988228 44.592331 33.796223 0.000056 75.812293 -0.000053 -5.169783 26.874184 -67.426944 -2.464816 -1.573977 2.681844 -5.717627 35.420565 -10.749429 -7.152235 -56.056322 -30.252465 -9.992381 -4.340070 -16.657590 0.000003 -0.000004 0.000000 -9.108286 -0.517864 2.259839 -0.115574 1.359288 14.150399 0.703174 -2.443971 31.994447 0.315269 -1.696555 21.186046 -0.000002 -0.000005 -0.000001 -9.532527 -0.000041 -0.000015 0.096301 -3.044858 4.876695 0.906086 -2.705119 36.807995 0.000025 -0.055940 0.233677 -0.000000 0.000001 0.000003 -9.103599 -0.043088 -1.865123 -0.106747 -6.194735 -2.370681 0.773341 -2.589991 33.371215 0.100532 0.971273 -12.167121 -0.000001 0.000002 -0.000001 -8.076697 -0.486703 -3.806271 -0.388173 -11.688365 -3.013122 0.417743 -1.995559 26.420601 0.124669 0.919630 -12.104875 0.000000 -0.000001 0.000004 4.570445 11.014708 -2.160853 -5.480382 -21.709531 13.916368 -29.944133 -33.048874 -68.431133 70.870330 -102.961304 91.011383 7.432728 -12.686468 47.701375 2.466132 -1.576208 2.681741 -45.178792 -1.485197 -34.092746 -3.694616 35.164181 21.229690 -11.510006 -28.570714 7.450895 0.000002 0.000004 0.000006 9.109315 -0.518036 2.259872 0.244851 -7.971347 0.492512 0.859958 3.062391 -31.345319 0.001698 -0.148133 1.371529 0.000001 -0.000002 -0.000000 9.533394 0.000029 0.000052 -0.088983 0.239977 -3.907462 0.671914 2.729720 -27.699221 0.107744 -1.118253 11.004596 -0.000000 -0.000008 0.000001 9.104545 -0.043036 -1.865067 2.310595 11.654155 -14.362759 1.535902 3.954549 -42.424692 0.005121 -0.245617 2.397649 -0.000004 0.000002 -0.000000 8.077795 -0.486871 -3.806259 4.163582 19.166933 -13.712671 1.348949 3.513146 -37.641251 0.107449 -1.346268 13.126851 -0.000001 -0.000002 -0.000004 -8.207788 -6.751652 -1.599560 -16.804501 -26.824730 -3.339264 38.016153 9.849088 -2.780169 -19.510572 14.944517 2.449639 -3.742649 0.000003 0.000001 0.000000 -0.000000 -0.000000 8.207791 -6.751693 -1.599556 -32.726004 23.545672 24.107834 47.583384 -10.078942 9.765487 -23.187748 -16.862144 -3.919456 0.901252 0.010107 -1.001305 0.000000 -0.000000 0.000000 
-12.055879 95.955025 -2.207768 -2.686069 1.535290 -9.901270 -0.000006 10.181581 0.131521 9.748165 -0.398880 5.386478 1.273587 -0.196398 0.738840 1.274686 -0.189879 0.743399 0.000002 16.740393 -2.049037 4.969275 0.314386 0.690672 -0.000000 9.617891 1.685010 -9.132123 2.841643 4.121181 0.000002 22.037354 7.501095 -0.000002 -0.000000 0.000000 -4.569967 11.014928 -2.160886 -0.023848 19.353353 0.425213 -25.690457 52.911061 25.654339 0.000005 70.588379 -0.000006 -7.297828 35.615574 -62.198940 -2.464796 -1.573970 2.681844 -3.376688 35.475309 -13.217349 -7.170553 -56.124132 -30.264397 -9.909930 -4.269704 -16.595386 -0.000001 -0.000001 0.000002 -9.108278 -0.517866 2.259843 0.031914 0.809279 16.665674 0.759720 -2.532635 33.287613 0.911181 -2.779674 36.425679 0.000004 -0.000001 0.000002 -9.532521 -0.000052 -0.000017 0.055045 -2.711331 1.021524 1.206172 -3.072150 42.641875 0.051025 -0.728190 8.516701 0.000002 0.000001 -0.000003 -9.103575 -0.043073 -1.865126 -0.692989 -5.883825 -10.616765 0.746875 -2.549528 32.776749 0.097282 0.955718 -11.971998 0.000000 -0.000003 0.000001 -8.076662 -0.486711 -3.806269 -1.409163 -12.183571 -8.577911 0.411525 -1.981850 26.235668 0.153828 1.035971 -13.577183 -0.000000 0.000001 -0.000001 4.570448 11.014718 -2.160858 -5.661718 -22.964998 16.418016 -31.189383 -38.748534 -67.604796 81.683209 -115.274892 107.249693 7.135605 -15.428315 36.708544 2.466123 -1.576219 2.681755 -55.862413 8.192766 -28.272393 -3.689135 35.080183 21.169758 -11.524302 -28.898643 7.292624 0.000002 0.000008 0.000004 9.109295 -0.518049 2.259877 1.066089 -8.019566 5.191135 0.736041 2.849843 -28.938712 0.000355 -0.070518 0.614057 -0.000001 0.000004 -0.000002 9.533415 -0.000004 0.000057 0.011798 -0.081607 -1.324105 0.417613 2.177719 -21.755706 0.146089 -1.300257 12.820359 0.000001 -0.000007 0.000004 9.104537 -0.043043 -1.865067 1.838266 12.436834 -10.092093 1.585261 4.007737 -43.135274 0.002695 -0.178707 1.744024 -0.000001 -0.000000 -0.000002 8.077787 -0.486882 -3.806255 5.084333 20.699173 -15.422666 1.374983 3.544224 -38.037761 0.106557 -1.341813 13.082584 0.000000 -0.000002 -0.000006 -8.207789 -6.751678 -1.599564 -16.728284 -26.813323 -3.995675 40.820591 9.824248 -3.461167 -20.763722 15.365593 3.075586 -3.737856 0.000003 -0.000001 -0.000000 -0.000000 -0.000000 8.207791 -6.751705 -1.599558 -32.181942 23.016110 24.443536 50.611685 -10.097607 9.785603 -24.598026 -16.041787 -2.979655 0.895996 0.010542 -1.022780 0.000000 -0.000001 0.000000 
